<?xml version="1.0" ?><!DOCTYPE svg  PUBLIC '-//W3C//DTD SVG 1.1//EN'  'http://www.w3.org/Graphics/SVG/1.1/DTD/svg11.dtd'><svg height="512px" style="enable-background:new 0 0 512 512;" version="1.1" viewBox="0 0 512 512" width="512px" xml:space="preserve" xmlns="http://www.w3.org/2000/svg" xmlns:xlink="http://www.w3.org/1999/xlink"><g id="C_-_40_x2C__Audit_x2C__bill_x2C__document_x2C__file_x2C__form_x2C__invoice_x2C__paper_x2C__sheet"><g><rect height="223.026" width="44.507" x="125.981" y="198.117"/><polygon points="386.494,52.758 386.494,90.429 424.343,90.429   "/><rect height="35.316" width="44.507" x="125.981" y="153.43"/><rect height="35.316" width="206.166" x="179.859" y="153.43"/><path d="M179.859,421.143h206.166V198.117H179.859V421.143z M345.831,229.213h17.935v17.85h-17.935V229.213z M345.831,264.939    h17.935v17.85h-17.935V264.939z M345.831,300.668h17.935v17.852h-17.935V300.668z M345.831,336.396h17.935v17.849h-17.935V336.396    z M345.831,372.124h17.935v17.85h-17.935V372.124z M309.91,229.213h17.933v17.85H309.91V229.213z M309.91,264.939h17.933v17.85    H309.91V264.939z M309.91,300.668h17.933v17.852H309.91V300.668z M309.91,336.396h17.933v17.849H309.91V336.396z M309.91,372.124    h17.933v17.85H309.91V372.124z M273.99,229.213h17.934v17.85H273.99V229.213z M273.99,264.939h17.934v17.85H273.99V264.939z     M273.99,300.668h17.934v17.852H273.99V300.668z M273.99,336.396h17.934v17.849H273.99V336.396z M273.99,372.124h17.934v17.85    H273.99V372.124z M238.069,229.213h17.935v17.85h-17.935V229.213z M238.069,264.939h17.935v17.85h-17.935V264.939z     M238.069,300.668h17.935v17.852h-17.935V300.668z M238.069,336.396h17.935v17.849h-17.935V336.396z M238.069,372.124h17.935    v17.85h-17.935V372.124z M202.141,229.213h17.942v17.85h-17.942V229.213z M202.141,264.939h17.942v17.85h-17.942V264.939z     M202.141,300.668h17.942v17.852h-17.942V300.668z M202.141,336.396h17.942v17.849h-17.942V336.396z M202.141,372.124h17.942    v17.85h-17.942V372.124z"/><path d="M381.809,99.8c-2.588,0-4.686-2.098-4.686-4.686V46.169H81.044l0.005,35.32h201.892c2.588,0,4.686,2.098,4.686,4.686    s-2.098,4.686-4.686,4.686H81.051l0.057,374.972h349.849V99.8H381.809z M282.941,112.052h44.901c2.589,0,4.686,2.098,4.686,4.686    s-2.097,4.686-4.686,4.686h-44.901c-2.588,0-4.686-2.098-4.686-4.686S280.354,112.052,282.941,112.052z M121.296,112.052h125.726    c2.588,0,4.686,2.098,4.686,4.686s-2.098,4.686-4.686,4.686H121.296c-2.587,0-4.686-2.098-4.686-4.686    S118.708,112.052,121.296,112.052z M395.396,193.432v232.396c0,2.588-2.098,4.685-4.686,4.685H175.174h-53.878    c-2.587,0-4.686-2.097-4.686-4.685V193.432v-44.687c0-2.588,2.098-4.686,4.686-4.686h53.878h215.537    c2.588,0,4.686,2.098,4.686,4.686V193.432z"/></g></g><g id="Layer_1"/></svg>