<?xml version="1.0" ?><svg height="128" viewBox="0 0 128 128" width="128" xmlns="http://www.w3.org/2000/svg"><defs><style>.cls-1{fill:#79c651;}.cls-2,.cls-3{fill:none;stroke-linecap:round;stroke-linejoin:round;stroke-width:3px;}.cls-2{stroke:#252d32;}.cls-3{stroke:#ffc960;}.cls-4{fill:#252d32;}.cls-5{fill:#ffc960;}</style></defs><title/><g id="Icons"><path class="cls-1" d="M82.42,77H28.58A5.58,5.58,0,0,0,23,82.58v27.84A5.58,5.58,0,0,0,28.58,116H82.42A5.58,5.58,0,0,0,88,110.42V82.58A5.58,5.58,0,0,0,82.42,77ZM55.51,100.7a3.82,3.82,0,1,1,3.82-3.82A3.81,3.81,0,0,1,55.51,100.7Z"/><path class="cls-1" d="M18,115v3.54A4.46,4.46,0,0,0,22.46,123H87.54A4.46,4.46,0,0,0,92,118.54V115Z"/><path class="cls-2" d="M79,60.72c-3.56-2.55-5.78-6.12-5.78-10.09,0-7.7,8.36-14,18.66-14s18.67,6.25,18.67,14-8.36,14-18.67,14a24.49,24.49,0,0,1-5.76-.69,14.22,14.22,0,0,1-4.09,3.18,14.83,14.83,0,0,1-4.66,1.5,11.93,11.93,0,0,0,1.64-4.49A11.7,11.7,0,0,0,79,60.72Z"/><path class="cls-3" d="M93.69,69.34a23.57,23.57,0,0,0,9.14,1.79,23.92,23.92,0,0,0,5.76-.69,14.19,14.19,0,0,0,4.09,3.18,14.54,14.54,0,0,0,4.67,1.5,11.92,11.92,0,0,1-1.65-4.49,11.7,11.7,0,0,1,0-3.37c3.56-2.54,5.78-6.12,5.78-10.08,0-4.4-2.72-8.33-7-10.88"/><line class="cls-2" x1="7.5" x2="104.5" y1="123.5" y2="123.5"/><rect class="cls-2" height="40" rx="5.58" width="67" x="21.5" y="76.5"/><path class="cls-2" d="M22.5,115.5h-5v3a5,5,0,0,0,5,5h65a5,5,0,0,0,5-5v-3h-5"/><path class="cls-1" d="M84.66,48.72a2.18,2.18,0,1,0,2.18,2.18A2.18,2.18,0,0,0,84.66,48.72Z"/><path class="cls-1" d="M92.29,48.72a2.18,2.18,0,1,0,2.18,2.18A2.19,2.19,0,0,0,92.29,48.72Z"/><path class="cls-1" d="M99.92,48.72a2.18,2.18,0,1,0,2.18,2.18A2.19,2.19,0,0,0,99.92,48.72Z"/><path class="cls-2" d="M57.5,47.5h2.77c3.23,0,5.23-2,5.23-4.2V36.5"/><rect class="cls-4" height="5" rx="2.31" width="8" x="50" y="45"/><path class="cls-5" d="M29,34l4.54-2s.68-10.58,7.84-13c4.23-1.44,16.68,2,19.59,2.36a17.18,17.18,0,0,0,5-.16V33h3c2.49-4.15,2.63-10.22,1.17-14.18l2.52-8.26c-2-.31-4-.21-6.06-1.73-4.34-3.13-10-6.46-16.12-6.13C44.88,3,40.36,7.81,40.36,7.81S33.07,9.65,30,15,29,34,29,34Z"/><path class="cls-2" d="M32.5,32.5h-.12a2.89,2.89,0,0,0-2.87,3.21l.09.75a3.52,3.52,0,0,0,3.5,3.13"/><path class="cls-2" d="M12.5,110.5V87c0-12.54,6.53-18.48,18.71-22.9,5-1.81,9.29-3.64,9.29-9.1V53.5"/><path class="cls-2" d="M57.5,53.5v1.33c0,5.5,4.33,7.34,9.36,9.17,1.4.51,2.72,1,4,1.59"/><path class="cls-2" d="M49.5,41.5h.81a2.19,2.19,0,0,0,2.19-2.19V34.67c0-2.81,1.07-4.27,2.46-4.32.86,0,4.18,0,4.18,0"/><path class="cls-2" d="M57.47,53.13A15.41,15.41,0,0,1,49.11,56c-7,0-15.61-7.62-15.61-17.29V30.5"/><line class="cls-2" x1="65.5" x2="65.5" y1="22.5" y2="32.5"/><line class="cls-2" x1="44.5" x2="40.5" y1="30.5" y2="30.5"/><path class="cls-2" d="M28.5,27.5c-1.92-9.59,2.87-16.8,11-19.12"/><path class="cls-2" d="M70.51,29.26c1.28-4.12.67-7.27-.4-11"/><path class="cls-2" d="M33.5,30.5s1-10.36,9.13-11.53,27.08,11.48,30-8.27"/><path class="cls-2" d="M72,10.7c-6.39,0-8.14-5.23-16.85-7-11.45-2.29-15.1,4.65-15.1,4.65"/><path class="cls-2" d="M61.72,62c0,4.13-5.54,7.49-12.36,7.49S37,66.13,37,62"/><circle class="cls-4" cx="42.5" cy="35.5" r="1.5"/><circle class="cls-4" cx="57.5" cy="35.5" r="1.5"/></g></svg>